{"asset":{"generator":"Khronos glTF Blender I/O v5.2.40","version":"2.0"},"scene":0,"scenes":[{"name":"Scene","nodes":[38]}],"nodes":[{"mesh":0,"name":"Body"},{"mesh":1,"name":"BodyCoat"},{"mesh":2,"name":"FrontFootPivot_L_ClawIvory"},{"mesh":3,"name":"FrontFootPivot_L_PawPink"},{"mesh":4,"name":"FrontLeg_L"},{"children":[2,3,4],"name":"FrontFootPivot_L","translation":[-0.2150000035762787,0.2499999850988388,-0.20000000298023224]},{"mesh":5,"name":"FrontFootPivot_R_ClawIvory"},{"mesh":6,"name":"FrontFootPivot_R_PawPink"},{"mesh":7,"name":"FrontLeg_R"},{"children":[6,7,8],"name":"FrontFootPivot_R","translation":[0.2150000035762787,0.2499999850988388,-0.20000000298023224]},{"mesh":8,"name":"EarCup_-1"},{"children":[10],"name":"EarPivot_L","translation":[-0.1599999964237213,0.015000016428530216,-0.10500000417232513]},{"mesh":9,"name":"EarCup_1"},{"children":[12],"name":"EarPivot_R","translation":[0.1599999964237213,0.015000016428530216,-0.10500000417232513]},{"mesh":10,"name":"HeadPivot_EyeGlint","scale":[0.0035000001080334187,0.004999999888241291,0.006000000052154064],"translation":[-0.18799999356269836,0.16600003838539124,-0.03300004079937935]},{"mesh":11,"name":"HeadPivot_GlassEye","scale":[0.027000000700354576,0.03100000135600567,0.024000000208616257],"translation":[-0.164000004529953,0.15400001406669617,-0.022999990731477737]},{"mesh":12,"name":"HeadPivot_HoodFur","scale":[0.06199999898672104,0.10300000011920929,0.0689999982714653],"translation":[-0.08500000089406967,0.2580000162124634,0.06399998813867569]},{"mesh":13,"name":"HeadPivot_MouthLine"},{"mesh":14,"name":"HeadPivot_Nostril","scale":[0.004000000189989805,0.0020000000949949026,0.003000000026077032],"translation":[-0.01899999938905239,0.5370000600814819,0.12099998444318771]},{"mesh":15,"name":"HeadPivot_Whisker"},{"mesh":16,"name":"Nose","scale":[0.035999998450279236,0.02500000037252903,0.02500000037252903],"translation":[0,0.5149999856948853,0.12000000476837158]},{"children":[11,13,14,15,16,17,18,19,20],"name":"HeadPivot","scale":[1,0.8999999761581421,1],"translation":[0,0.30000001192092896,-0.47999998927116394]},{"mesh":17,"name":"HindFootPivot_L_ClawIvory"},{"mesh":18,"name":"HindFootPivot_L_PawPink"},{"mesh":19,"name":"HindLeg_L"},{"children":[22,23,24],"name":"HindFootPivot_L","translation":[-0.24500000476837158,-0.44999998807907104,-0.20000000298023224]},{"mesh":20,"name":"HindFootPivot_R_ClawIvory"},{"mesh":21,"name":"HindFootPivot_R_PawPink"},{"mesh":22,"name":"HindLeg_R"},{"children":[26,27,28],"name":"HindFootPivot_R","translation":[0.24500000476837158,-0.44999998807907104,-0.20000000298023224]},{"mesh":23,"name":"ShoulderCoat"},{"name":"TailPivot_5","rotation":[0.028993483632802963,-0.00037693645572289824,-0.012994172982871532,0.9994950890541077],"translation":[0,-0.13999982178211212,0]},{"children":[31],"name":"TailPivot_4","rotation":[0.0029996123630553484,-0.000047998397349147126,-0.015999240800738335,0.9998675584793091],"translation":[0,-0.14000000059604645,0]},{"children":[32],"name":"TailPivot_3","rotation":[-0.022993821650743484,0.0004369348753243685,-0.018993834033608437,0.9995551705360413],"translation":[0,-0.1399998962879181,0]},{"children":[33],"name":"TailPivot_2","rotation":[-0.04896854609251022,0.0010774820111691952,-0.021971823647618294,0.9985581040382385],"translation":[0,-0.14000007510185242,0]},{"children":[34],"name":"TailPivot_1","rotation":[-0.07490630447864532,0.0018730476731434464,-0.02492712438106537,0.9968771934509277],"translation":[0,-0.14000003039836884,0]},{"mesh":24,"name":"TailSkin"},{"children":[35,36],"name":"TailPivot_0","rotation":[0.06994284689426422,0,0,0.9975510239601135],"translation":[0,-0.6549999713897705,-0.3499999940395355]},{"children":[0,1,5,9,21,25,29,30,37],"name":"RatRoot","rotation":[0.7071068286895752,0,0,0.7071068286895752]}],"materials":[{"doubleSided":true,"name":"CreamFur","normalTexture":{"index":0,"scale":0.1899999976158142},"pbrMetallicRoughness":{"baseColorTexture":{"index":1},"metallicFactor":0,"metallicRoughnessTexture":{"index":2}}},{"doubleSided":true,"name":"HoodFur","normalTexture":{"index":3,"scale":0.1899999976158142},"pbrMetallicRoughness":{"baseColorTexture":{"index":4},"metallicFactor":0,"metallicRoughnessTexture":{"index":5}}},{"doubleSided":true,"name":"ClawIvory","pbrMetallicRoughness":{"baseColorFactor":[0.8700000047683716,0.7900000214576721,0.6899999976158142,1],"metallicFactor":0,"roughnessFactor":0.5299999713897705}},{"doubleSided":true,"name":"PawPink","pbrMetallicRoughness":{"baseColorFactor":[0.6800000071525574,0.46000000834465027,0.4300000071525574,1],"metallicFactor":0,"roughnessFactor":0.8299999833106995}},{"doubleSided":true,"name":"EarPink","pbrMetallicRoughness":{"baseColorFactor":[0.6700000166893005,0.41999998688697815,0.4300000071525574,1],"metallicFactor":0,"roughnessFactor":0.75}},{"doubleSided":true,"name":"EarInterior","pbrMetallicRoughness":{"baseColorFactor":[0.5199999809265137,0.30000001192092896,0.33000001311302185,1],"metallicFactor":0,"roughnessFactor":0.800000011920929}},{"doubleSided":true,"name":"EyeGlint","pbrMetallicRoughness":{"baseColorFactor":[1,0.9599999785423279,0.8700000047683716,1],"metallicFactor":0,"roughnessFactor":0.15000000596046448}},{"doubleSided":true,"name":"GlassEye","pbrMetallicRoughness":{"baseColorFactor":[0.017999999225139618,0.012000000104308128,0.014999999664723873,1],"metallicFactor":0,"roughnessFactor":0.09000000357627869}},{"doubleSided":true,"name":"MouthLine","pbrMetallicRoughness":{"baseColorFactor":[0.3799999952316284,0.23999999463558197,0.23000000417232513,1],"metallicFactor":0,"roughnessFactor":0.9200000166893005}},{"doubleSided":true,"name":"Nostril","pbrMetallicRoughness":{"baseColorFactor":[0.2199999988079071,0.10000000149011612,0.10000000149011612,1],"metallicFactor":0,"roughnessFactor":0.9100000262260437}},{"doubleSided":true,"name":"Whisker","pbrMetallicRoughness":{"baseColorFactor":[0.8600000143051147,0.7799999713897705,0.6800000071525574,1],"metallicFactor":0,"roughnessFactor":0.5}},{"doubleSided":true,"name":"NosePink","pbrMetallicRoughness":{"baseColorFactor":[0.7799999713897705,0.4300000071525574,0.4300000071525574,1],"metallicFactor":0,"roughnessFactor":0.5299999713897705}},{"doubleSided":true,"name":"TailPink","pbrMetallicRoughness":{"baseColorTexture":{"index":6},"metallicFactor":0,"roughnessFactor":0.8100000023841858}}],"meshes":[{"name":"Body","primitives":[{"attributes":{"POSITION":0,"NORMAL":1,"TEXCOORD_0":2},"indices":3,"material":0},{"attributes":{"POSITION":4,"NORMAL":5,"TEXCOORD_0":6},"indices":7,"material":1}]},{"name":"BodyCoat","primitives":[{"attributes":{"POSITION":8,"NORMAL":9,"TEXCOORD_0":10},"indices":11,"material":0}]},{"name":"FrontClaw_L_0","primitives":[{"attributes":{"POSITION":12,"NORMAL":13,"TEXCOORD_0":14},"indices":15,"material":2}]},{"name":"FrontFinger_L_0","primitives":[{"attributes":{"POSITION":16,"NORMAL":17,"TEXCOORD_0":18,"TEXCOORD_1":19},"indices":20,"material":3}]},{"name":"FrontLeg_L","primitives":[{"attributes":{"POSITION":21,"NORMAL":22,"TEXCOORD_0":23},"indices":24,"material":0}]},{"name":"FrontClaw_R_0","primitives":[{"attributes":{"POSITION":25,"NORMAL":26,"TEXCOORD_0":27},"indices":15,"material":2}]},{"name":"FrontFinger_R_0","primitives":[{"attributes":{"POSITION":28,"NORMAL":29,"TEXCOORD_0":30,"TEXCOORD_1":31},"indices":32,"material":3}]},{"name":"FrontLeg_R","primitives":[{"attributes":{"POSITION":33,"NORMAL":34,"TEXCOORD_0":35},"indices":24,"material":0}]},{"name":"EarCup_-1","primitives":[{"attributes":{"POSITION":36,"NORMAL":37},"indices":38,"material":4},{"attributes":{"POSITION":39,"NORMAL":40},"indices":41,"material":5}]},{"name":"EarCup_1","primitives":[{"attributes":{"POSITION":42,"NORMAL":43},"indices":38,"material":4},{"attributes":{"POSITION":44,"NORMAL":45},"indices":46,"material":5}]},{"name":"Sphere.002","primitives":[{"attributes":{"POSITION":47,"NORMAL":48,"TEXCOORD_0":49},"indices":50,"material":6}]},{"name":"Sphere.001","primitives":[{"attributes":{"POSITION":51,"NORMAL":52,"TEXCOORD_0":53},"indices":54,"material":7}]},{"name":"Sphere","primitives":[{"attributes":{"POSITION":55,"NORMAL":56,"TEXCOORD_0":57,"TEXCOORD_1":58,"TEXCOORD_2":59,"TEXCOORD_3":60},"indices":61,"material":1}]},{"name":"MouthBranch_-1","primitives":[{"attributes":{"POSITION":62,"NORMAL":63,"TEXCOORD_0":64},"indices":65,"material":8}]},{"name":"Sphere.014","primitives":[{"attributes":{"POSITION":66,"NORMAL":67,"TEXCOORD_0":68},"indices":69,"material":9}]},{"name":"Whisker_-1_0","primitives":[{"attributes":{"POSITION":70,"NORMAL":71,"TEXCOORD_0":72},"indices":73,"material":10}]},{"name":"Sphere.008","primitives":[{"attributes":{"POSITION":74,"NORMAL":75,"TEXCOORD_0":76},"indices":77,"material":11}]},{"name":"HindClaw_L_0","primitives":[{"attributes":{"POSITION":78,"NORMAL":79,"TEXCOORD_0":80},"indices":81,"material":2}]},{"name":"HindFinger_L_0","primitives":[{"attributes":{"POSITION":82,"NORMAL":83,"TEXCOORD_0":84,"TEXCOORD_1":85},"indices":20,"material":3}]},{"name":"HindLeg_L","primitives":[{"attributes":{"POSITION":86,"NORMAL":87,"TEXCOORD_0":88},"indices":89,"material":0}]},{"name":"HindClaw_R_0","primitives":[{"attributes":{"POSITION":90,"NORMAL":91,"TEXCOORD_0":92},"indices":81,"material":2}]},{"name":"HindFinger_R_0","primitives":[{"attributes":{"POSITION":93,"NORMAL":94,"TEXCOORD_0":95,"TEXCOORD_1":96},"indices":32,"material":3}]},{"name":"HindLeg_R","primitives":[{"attributes":{"POSITION":97,"NORMAL":98,"TEXCOORD_0":99},"indices":100,"material":0}]},{"name":"ShoulderCoat","primitives":[{"attributes":{"POSITION":101,"NORMAL":102,"TEXCOORD_0":103},"indices":104,"material":1}]},{"name":"TailSkin","primitives":[{"attributes":{"POSITION":105,"NORMAL":106,"TEXCOORD_0":107},"indices":108,"material":12}]}],"textures":[{"sampler":0,"source":0},{"sampler":0,"source":1},{"sampler":0,"source":2},{"sampler":0,"source":0},{"sampler":0,"source":1},{"sampler":0,"source":2},{"sampler":0,"source":3}],"images":[{"name":"rat_fur_normal","uri":"rat_fur_normal.avif"},{"name":"rat_fur_color","uri":"rat_fur_color.avif"},{"name":"rat_fur_roughness","uri":"rat_fur_roughness.avif"},{"name":"rat_tail_scales","uri":"rat_tail_scales.avif"}],"accessors":[{"bufferView":0,"componentType":5126,"count":4518,"max":[0.29893237352371216,0.4782428741455078,-0.11862002313137054],"min":[-0.29893243312835693,-0.7188282012939453,-0.6858402490615845],"type":"VEC3"},{"bufferView":1,"componentType":5126,"count":4518,"type":"VEC3"},{"bufferView":2,"componentType":5126,"count":4518,"type":"VEC2"},{"bufferView":3,"componentType":5123,"count":26112,"type":"SCALAR"},{"bufferView":4,"componentType":5126,"count":1161,"max":[0.17520391941070557,0.4624306857585907,-0.27711018919944763],"min":[-0.17520393431186676,0.2683333456516266,-0.6215565204620361],"type":"VEC3"},{"bufferView":5,"componentType":5126,"count":1161,"type":"VEC3"},{"bufferView":6,"componentType":5126,"count":1161,"type":"VEC2"},{"bufferView":7,"componentType":5123,"count":6144,"type":"SCALAR"},{"bufferView":8,"componentType":5126,"count":8732,"max":[0.3070341944694519,0.1997397541999817,-0.2928168773651123],"min":[-0.3081001937389374,-0.5638626217842102,-0.6971576809883118],"type":"VEC3"},{"bufferView":9,"componentType":5126,"count":8732,"type":"VEC3"},{"bufferView":10,"componentType":5126,"count":8732,"type":"VEC2"},{"bufferView":11,"componentType":5123,"count":13098,"type":"SCALAR"},{"bufferView":12,"componentType":5126,"count":48,"max":[0.053140804171562195,0.24856264889240265,0.18826818466186523],"min":[-0.0532260425388813,0.22520475089550018,0.1797318160533905],"type":"VEC3"},{"bufferView":13,"componentType":5126,"count":48,"type":"VEC3"},{"bufferView":14,"componentType":5126,"count":48,"type":"VEC2"},{"bufferView":15,"componentType":5123,"count":120,"type":"SCALAR"},{"bufferView":16,"componentType":5126,"count":528,"max":[0.08242535591125488,0.2358638495206833,0.187018483877182],"min":[-0.05228747799992561,0.027999989688396454,0.14000001549720764],"type":"VEC3"},{"bufferView":17,"componentType":5126,"count":528,"type":"VEC3"},{"bufferView":18,"componentType":5126,"count":528,"type":"VEC2"},{"bufferView":19,"componentType":5126,"count":528,"type":"VEC2"},{"bufferView":20,"componentType":5123,"count":2520,"type":"SCALAR"},{"bufferView":21,"componentType":5126,"count":1365,"max":[0.22121641039848328,0.10277242213487625,0.1715485155582428],"min":[-0.02697489783167839,-0.15673525631427765,-0.30846282839775085],"type":"VEC3"},{"bufferView":22,"componentType":5126,"count":1365,"type":"VEC3"},{"bufferView":23,"componentType":5126,"count":1365,"type":"VEC2"},{"bufferView":24,"componentType":5123,"count":7680,"type":"SCALAR"},{"bufferView":25,"componentType":5126,"count":48,"max":[0.053140804171562195,0.24856264889240265,0.18826818466186523],"min":[-0.0532260425388813,0.22520475089550018,0.1797318160533905],"type":"VEC3"},{"bufferView":26,"componentType":5126,"count":48,"type":"VEC3"},{"bufferView":27,"componentType":5126,"count":48,"type":"VEC2"},{"bufferView":28,"componentType":5126,"count":528,"max":[0.05228747799992561,0.2358638495206833,0.187018483877182],"min":[-0.08242535591125488,0.027999989688396454,0.14000001549720764],"type":"VEC3"},{"bufferView":29,"componentType":5126,"count":528,"type":"VEC3"},{"bufferView":30,"componentType":5126,"count":528,"type":"VEC2"},{"bufferView":31,"componentType":5126,"count":528,"type":"VEC2"},{"bufferView":32,"componentType":5123,"count":2520,"type":"SCALAR"},{"bufferView":33,"componentType":5126,"count":1365,"max":[0.02697489783167839,0.10277242958545685,0.1715485155582428],"min":[-0.22121642529964447,-0.15673525631427765,-0.30846282839775085],"type":"VEC3"},{"bufferView":34,"componentType":5126,"count":1365,"type":"VEC3"},{"bufferView":35,"componentType":5126,"count":1365,"type":"VEC2"},{"bufferView":36,"componentType":5126,"count":336,"max":[0.03416528180241585,0.05443986505270004,0.11497209966182709],"min":[-0.03578288108110428,-0.05190964788198471,-0.11498112976551056],"type":"VEC3"},{"bufferView":37,"componentType":5126,"count":336,"type":"VEC3"},{"bufferView":38,"componentType":5123,"count":1728,"type":"SCALAR"},{"bufferView":39,"componentType":5126,"count":720,"max":[0.03542211279273033,0.04390764236450195,0.10110350698232651],"min":[-0.025717545300722122,-0.05050849914550781,-0.10109930485486984],"type":"VEC3"},{"bufferView":40,"componentType":5126,"count":720,"type":"VEC3"},{"bufferView":41,"componentType":5123,"count":4032,"type":"SCALAR"},{"bufferView":42,"componentType":5126,"count":336,"max":[0.03748626634478569,0.052378974854946136,0.11118389666080475],"min":[-0.026331502944231033,-0.044196005910634995,-0.11117485165596008],"type":"VEC3"},{"bufferView":43,"componentType":5126,"count":336,"type":"VEC3"},{"bufferView":44,"componentType":5126,"count":720,"max":[0.028110450133681297,0.042553357779979706,0.09777669608592987],"min":[-0.027510685846209526,-0.04292719438672066,-0.09777669608592987],"type":"VEC3"},{"bufferView":45,"componentType":5126,"count":720,"type":"VEC3"},{"bufferView":46,"componentType":5123,"count":4032,"type":"SCALAR"},{"bufferView":47,"componentType":5126,"count":1692,"max":[108.42855834960938,1,3.666663885116577],"min":[-0.9999994039535522,-4.199998378753662,-1.000006914138794],"type":"VEC3"},{"bufferView":48,"componentType":5126,"count":1692,"type":"VEC3"},{"bufferView":49,"componentType":5126,"count":1692,"type":"VEC2"},{"bufferView":50,"componentType":5123,"count":8640,"type":"SCALAR"},{"bufferView":51,"componentType":5126,"count":846,"max":[13.148147583007812,0.9999999403953552,1.0000014305114746],"min":[-0.9999998807907104,-0.9999999403953552,-0.9999973773956299],"type":"VEC3"},{"bufferView":52,"componentType":5126,"count":846,"type":"VEC3"},{"bufferView":53,"componentType":5126,"count":846,"type":"VEC2"},{"bufferView":54,"componentType":5123,"count":4320,"type":"SCALAR"},{"bufferView":55,"componentType":5126,"count":9217,"max":[4.4651031494140625,2.4866201877593994,1.8130810260772705],"min":[-1.722807765007019,-4.143969535827637,-3.397233724594116],"type":"VEC3"},{"bufferView":56,"componentType":5126,"count":9217,"type":"VEC3"},{"bufferView":57,"componentType":5126,"count":9217,"type":"VEC2"},{"bufferView":58,"componentType":5126,"count":9217,"type":"VEC2"},{"bufferView":59,"componentType":5126,"count":9217,"type":"VEC2"},{"bufferView":60,"componentType":5126,"count":9217,"type":"VEC2"},{"bufferView":61,"componentType":5123,"count":40086,"type":"SCALAR"},{"bufferView":62,"componentType":5126,"count":36,"max":[0.04223526641726494,0.5155035853385925,0.15787968039512634],"min":[-0.0422247089445591,0.46467649936676025,0.13878390192985535],"type":"VEC3"},{"bufferView":63,"componentType":5126,"count":36,"type":"VEC3"},{"bufferView":64,"componentType":5126,"count":36,"type":"VEC2"},{"bufferView":65,"componentType":5123,"count":120,"type":"SCALAR"},{"bufferView":66,"componentType":5126,"count":846,"max":[10.5,1.000030517578125,0.9999997019767761],"min":[-0.9999989867210388,-0.999969482421875,-0.9999994039535522],"type":"VEC3"},{"bufferView":67,"componentType":5126,"count":846,"type":"VEC3"},{"bufferView":68,"componentType":5126,"count":846,"type":"VEC2"},{"bufferView":69,"componentType":5123,"count":4320,"type":"SCALAR"},{"bufferView":70,"componentType":5126,"count":450,"max":[0.4400345981121063,0.48311954736709595,0.18710461258888245],"min":[-0.4400345981121063,0.24688506126403809,0.026165703311562538],"type":"VEC3"},{"bufferView":71,"componentType":5126,"count":450,"type":"VEC3"},{"bufferView":72,"componentType":5126,"count":450,"type":"VEC2"},{"bufferView":73,"componentType":5123,"count":1728,"type":"SCALAR"},{"bufferView":74,"componentType":5126,"count":423,"max":[0.9999998211860657,1,0.9999997019767761],"min":[-0.999999463558197,-1,-0.9999994039535522],"type":"VEC3"},{"bufferView":75,"componentType":5126,"count":423,"type":"VEC3"},{"bufferView":76,"componentType":5126,"count":423,"type":"VEC2"},{"bufferView":77,"componentType":5123,"count":2160,"type":"SCALAR"},{"bufferView":78,"componentType":5126,"count":60,"max":[0.08029664307832718,0.2530364692211151,0.18826930224895477],"min":[-0.08037503808736801,0.22013504803180695,0.17973069846630096],"type":"VEC3"},{"bufferView":79,"componentType":5126,"count":60,"type":"VEC3"},{"bufferView":80,"componentType":5126,"count":60,"type":"VEC2"},{"bufferView":81,"componentType":5123,"count":150,"type":"SCALAR"},{"bufferView":82,"componentType":5126,"count":528,"max":[0.07736288011074066,0.2402588576078415,0.18702001869678497],"min":[-0.07736288011074066,0.027999989688396454,0.14000001549720764],"type":"VEC3"},{"bufferView":83,"componentType":5126,"count":528,"type":"VEC3"},{"bufferView":84,"componentType":5126,"count":528,"type":"VEC2"},{"bufferView":85,"componentType":5126,"count":528,"type":"VEC2"},{"bufferView":86,"componentType":5126,"count":1365,"max":[0.2546122372150421,0.167288139462471,0.18004140257835388],"min":[-0.058747753500938416,-0.0997699722647667,-0.3075861632823944],"type":"VEC3"},{"bufferView":87,"componentType":5126,"count":1365,"type":"VEC3"},{"bufferView":88,"componentType":5126,"count":1365,"type":"VEC2"},{"bufferView":89,"componentType":5123,"count":7680,"type":"SCALAR"},{"bufferView":90,"componentType":5126,"count":60,"max":[0.08029664307832718,0.2530364692211151,0.18826930224895477],"min":[-0.08037503808736801,0.22013504803180695,0.17973069846630096],"type":"VEC3"},{"bufferView":91,"componentType":5126,"count":60,"type":"VEC3"},{"bufferView":92,"componentType":5126,"count":60,"type":"VEC2"},{"bufferView":93,"componentType":5126,"count":528,"max":[0.07736288011074066,0.2402588576078415,0.18702001869678497],"min":[-0.07736288011074066,0.027999989688396454,0.14000001549720764],"type":"VEC3"},{"bufferView":94,"componentType":5126,"count":528,"type":"VEC3"},{"bufferView":95,"componentType":5126,"count":528,"type":"VEC2"},{"bufferView":96,"componentType":5126,"count":528,"type":"VEC2"},{"bufferView":97,"componentType":5126,"count":1365,"max":[0.058747753500938416,0.1672881543636322,0.18004140257835388],"min":[-0.2546122074127197,-0.09976997971534729,-0.3075861632823944],"type":"VEC3"},{"bufferView":98,"componentType":5126,"count":1365,"type":"VEC3"},{"bufferView":99,"componentType":5126,"count":1365,"type":"VEC2"},{"bufferView":100,"componentType":5123,"count":7680,"type":"SCALAR"},{"bufferView":101,"componentType":5126,"count":1748,"max":[0.20554088056087494,0.3897516131401062,-0.367782860994339],"min":[-0.20573817193508148,0.18170687556266785,-0.6383164525032043],"type":"VEC3"},{"bufferView":102,"componentType":5126,"count":1748,"type":"VEC3"},{"bufferView":103,"componentType":5126,"count":1748,"type":"VEC2"},{"bufferView":104,"componentType":5123,"count":2622,"type":"SCALAR"},{"bufferView":105,"componentType":5126,"count":1573,"max":[0.10099175572395325,0.007429942954331636,0.045203451067209244],"min":[-0.045809973031282425,-0.8602773547172546,-0.07324014604091644],"type":"VEC3"},{"bufferView":106,"componentType":5126,"count":1573,"type":"VEC3"},{"bufferView":107,"componentType":5126,"count":1573,"type":"VEC2"},{"bufferView":108,"componentType":5123,"count":8640,"type":"SCALAR"}],"bufferViews":[{"buffer":0,"byteLength":54216,"byteOffset":0,"target":34962},{"buffer":0,"byteLength":54216,"byteOffset":54216,"target":34962},{"buffer":0,"byteLength":36144,"byteOffset":108432,"target":34962},{"buffer":0,"byteLength":52224,"byteOffset":144576,"target":34963},{"buffer":0,"byteLength":13932,"byteOffset":196800,"target":34962},{"buffer":0,"byteLength":13932,"byteOffset":210732,"target":34962},{"buffer":0,"byteLength":9288,"byteOffset":224664,"target":34962},{"buffer":0,"byteLength":12288,"byteOffset":233952,"target":34963},{"buffer":0,"byteLength":104784,"byteOffset":246240,"target":34962},{"buffer":0,"byteLength":104784,"byteOffset":351024,"target":34962},{"buffer":0,"byteLength":69856,"byteOffset":455808,"target":34962},{"buffer":0,"byteLength":26196,"byteOffset":525664,"target":34963},{"buffer":0,"byteLength":576,"byteOffset":551860,"target":34962},{"buffer":0,"byteLength":576,"byteOffset":552436,"target":34962},{"buffer":0,"byteLength":384,"byteOffset":553012,"target":34962},{"buffer":0,"byteLength":240,"byteOffset":553396,"target":34963},{"buffer":0,"byteLength":6336,"byteOffset":553636,"target":34962},{"buffer":0,"byteLength":6336,"byteOffset":559972,"target":34962},{"buffer":0,"byteLength":4224,"byteOffset":566308,"target":34962},{"buffer":0,"byteLength":4224,"byteOffset":570532,"target":34962},{"buffer":0,"byteLength":5040,"byteOffset":574756,"target":34963},{"buffer":0,"byteLength":16380,"byteOffset":579796,"target":34962},{"buffer":0,"byteLength":16380,"byteOffset":596176,"target":34962},{"buffer":0,"byteLength":10920,"byteOffset":612556,"target":34962},{"buffer":0,"byteLength":15360,"byteOffset":623476,"target":34963},{"buffer":0,"byteLength":576,"byteOffset":638836,"target":34962},{"buffer":0,"byteLength":576,"byteOffset":639412,"target":34962},{"buffer":0,"byteLength":384,"byteOffset":639988,"target":34962},{"buffer":0,"byteLength":6336,"byteOffset":640372,"target":34962},{"buffer":0,"byteLength":6336,"byteOffset":646708,"target":34962},{"buffer":0,"byteLength":4224,"byteOffset":653044,"target":34962},{"buffer":0,"byteLength":4224,"byteOffset":657268,"target":34962},{"buffer":0,"byteLength":5040,"byteOffset":661492,"target":34963},{"buffer":0,"byteLength":16380,"byteOffset":666532,"target":34962},{"buffer":0,"byteLength":16380,"byteOffset":682912,"target":34962},{"buffer":0,"byteLength":10920,"byteOffset":699292,"target":34962},{"buffer":0,"byteLength":4032,"byteOffset":710212,"target":34962},{"buffer":0,"byteLength":4032,"byteOffset":714244,"target":34962},{"buffer":0,"byteLength":3456,"byteOffset":718276,"target":34963},{"buffer":0,"byteLength":8640,"byteOffset":721732,"target":34962},{"buffer":0,"byteLength":8640,"byteOffset":730372,"target":34962},{"buffer":0,"byteLength":8064,"byteOffset":739012,"target":34963},{"buffer":0,"byteLength":4032,"byteOffset":747076,"target":34962},{"buffer":0,"byteLength":4032,"byteOffset":751108,"target":34962},{"buffer":0,"byteLength":8640,"byteOffset":755140,"target":34962},{"buffer":0,"byteLength":8640,"byteOffset":763780,"target":34962},{"buffer":0,"byteLength":8064,"byteOffset":772420,"target":34963},{"buffer":0,"byteLength":20304,"byteOffset":780484,"target":34962},{"buffer":0,"byteLength":20304,"byteOffset":800788,"target":34962},{"buffer":0,"byteLength":13536,"byteOffset":821092,"target":34962},{"buffer":0,"byteLength":17280,"byteOffset":834628,"target":34963},{"buffer":0,"byteLength":10152,"byteOffset":851908,"target":34962},{"buffer":0,"byteLength":10152,"byteOffset":862060,"target":34962},{"buffer":0,"byteLength":6768,"byteOffset":872212,"target":34962},{"buffer":0,"byteLength":8640,"byteOffset":878980,"target":34963},{"buffer":0,"byteLength":110604,"byteOffset":887620,"target":34962},{"buffer":0,"byteLength":110604,"byteOffset":998224,"target":34962},{"buffer":0,"byteLength":73736,"byteOffset":1108828,"target":34962},{"buffer":0,"byteLength":73736,"byteOffset":1182564,"target":34962},{"buffer":0,"byteLength":73736,"byteOffset":1256300,"target":34962},{"buffer":0,"byteLength":73736,"byteOffset":1330036,"target":34962},{"buffer":0,"byteLength":80172,"byteOffset":1403772,"target":34963},{"buffer":0,"byteLength":432,"byteOffset":1483944,"target":34962},{"buffer":0,"byteLength":432,"byteOffset":1484376,"target":34962},{"buffer":0,"byteLength":288,"byteOffset":1484808,"target":34962},{"buffer":0,"byteLength":240,"byteOffset":1485096,"target":34963},{"buffer":0,"byteLength":10152,"byteOffset":1485336,"target":34962},{"buffer":0,"byteLength":10152,"byteOffset":1495488,"target":34962},{"buffer":0,"byteLength":6768,"byteOffset":1505640,"target":34962},{"buffer":0,"byteLength":8640,"byteOffset":1512408,"target":34963},{"buffer":0,"byteLength":5400,"byteOffset":1521048,"target":34962},{"buffer":0,"byteLength":5400,"byteOffset":1526448,"target":34962},{"buffer":0,"byteLength":3600,"byteOffset":1531848,"target":34962},{"buffer":0,"byteLength":3456,"byteOffset":1535448,"target":34963},{"buffer":0,"byteLength":5076,"byteOffset":1538904,"target":34962},{"buffer":0,"byteLength":5076,"byteOffset":1543980,"target":34962},{"buffer":0,"byteLength":3384,"byteOffset":1549056,"target":34962},{"buffer":0,"byteLength":4320,"byteOffset":1552440,"target":34963},{"buffer":0,"byteLength":720,"byteOffset":1556760,"target":34962},{"buffer":0,"byteLength":720,"byteOffset":1557480,"target":34962},{"buffer":0,"byteLength":480,"byteOffset":1558200,"target":34962},{"buffer":0,"byteLength":300,"byteOffset":1558680,"target":34963},{"buffer":0,"byteLength":6336,"byteOffset":1558980,"target":34962},{"buffer":0,"byteLength":6336,"byteOffset":1565316,"target":34962},{"buffer":0,"byteLength":4224,"byteOffset":1571652,"target":34962},{"buffer":0,"byteLength":4224,"byteOffset":1575876,"target":34962},{"buffer":0,"byteLength":16380,"byteOffset":1580100,"target":34962},{"buffer":0,"byteLength":16380,"byteOffset":1596480,"target":34962},{"buffer":0,"byteLength":10920,"byteOffset":1612860,"target":34962},{"buffer":0,"byteLength":15360,"byteOffset":1623780,"target":34963},{"buffer":0,"byteLength":720,"byteOffset":1639140,"target":34962},{"buffer":0,"byteLength":720,"byteOffset":1639860,"target":34962},{"buffer":0,"byteLength":480,"byteOffset":1640580,"target":34962},{"buffer":0,"byteLength":6336,"byteOffset":1641060,"target":34962},{"buffer":0,"byteLength":6336,"byteOffset":1647396,"target":34962},{"buffer":0,"byteLength":4224,"byteOffset":1653732,"target":34962},{"buffer":0,"byteLength":4224,"byteOffset":1657956,"target":34962},{"buffer":0,"byteLength":16380,"byteOffset":1662180,"target":34962},{"buffer":0,"byteLength":16380,"byteOffset":1678560,"target":34962},{"buffer":0,"byteLength":10920,"byteOffset":1694940,"target":34962},{"buffer":0,"byteLength":15360,"byteOffset":1705860,"target":34963},{"buffer":0,"byteLength":20976,"byteOffset":1721220,"target":34962},{"buffer":0,"byteLength":20976,"byteOffset":1742196,"target":34962},{"buffer":0,"byteLength":13984,"byteOffset":1763172,"target":34962},{"buffer":0,"byteLength":5244,"byteOffset":1777156,"target":34963},{"buffer":0,"byteLength":18876,"byteOffset":1782400,"target":34962},{"buffer":0,"byteLength":18876,"byteOffset":1801276,"target":34962},{"buffer":0,"byteLength":12584,"byteOffset":1820152,"target":34962},{"buffer":0,"byteLength":17280,"byteOffset":1832736,"target":34963}],"samplers":[{"magFilter":9729,"minFilter":9987}],"buffers":[{"byteLength":1850016,"uri":"rat.bin"}]}